<svg width="127" height="19" viewBox="0 0 127 19" fill="none" xmlns="http://www.w3.org/2000/svg">
<path d="M9.24494 0L11.8641 5.63991L18.0374 6.38809L13.4829 10.6219L14.679 16.7243L9.24494 13.701L3.8109 16.7243L5.00697 10.6219L0.452479 6.38809L6.62573 5.63991L9.24494 0Z" fill="#FFC633"/>
<path d="M33.0469 0L35.6661 5.63991L41.8394 6.38809L37.2849 10.6219L38.481 16.7243L33.0469 13.701L27.6129 16.7243L28.809 10.6219L24.2545 6.38809L30.4277 5.63991L33.0469 0Z" fill="#FFC633"/>
<path d="M56.8487 0L59.4679 5.63991L65.6412 6.38809L61.0867 10.6219L62.2827 16.7243L56.8487 13.701L51.4147 16.7243L52.6107 10.6219L48.0562 6.38809L54.2295 5.63991L56.8487 0Z" fill="#FFC633"/>
<path d="M74.7642 16.7243L80.1982 13.701V0L77.579 5.63991L71.4058 6.38809L75.9603 10.6219L74.7642 16.7243Z" fill="#FFC633"/>
<path d="M96.362 13.2929C97.1927 13.2929 97.7853 13.1295 98.14 12.8029C98.504 12.4762 98.686 12.0375 98.686 11.4869C98.686 11.1322 98.6113 10.8335 98.462 10.5909C98.3127 10.3482 98.1167 10.1569 97.874 10.0169C97.6313 9.86754 97.3467 9.76487 97.02 9.70887C96.7027 9.64354 96.376 9.61087 96.04 9.61087H95.704V8.54687H96.166C96.3993 8.54687 96.6373 8.52354 96.88 8.47687C97.132 8.43021 97.3607 8.34621 97.566 8.22487C97.7713 8.10354 97.9393 7.94021 98.07 7.73487C98.2007 7.52021 98.266 7.25421 98.266 6.93687C98.266 6.67554 98.2193 6.45154 98.126 6.26487C98.0327 6.07821 97.9067 5.92421 97.748 5.80287C97.5987 5.68154 97.4213 5.59754 97.216 5.55087C97.02 5.49487 96.81 5.46687 96.586 5.46687C96.138 5.46687 95.7553 5.53221 95.438 5.66287C95.13 5.79354 94.8687 5.92887 94.654 6.06887L94.15 5.07487C94.262 5.00021 94.402 4.92087 94.57 4.83687C94.7473 4.74354 94.9433 4.65954 95.158 4.58487C95.3727 4.51021 95.6013 4.44954 95.844 4.40287C96.096 4.34687 96.3573 4.31887 96.628 4.31887C97.1413 4.31887 97.5847 4.38421 97.958 4.51487C98.3313 4.63621 98.6393 4.81354 98.882 5.04687C99.1247 5.27087 99.3067 5.54154 99.428 5.85887C99.5493 6.16687 99.61 6.50287 99.61 6.86687C99.61 7.37087 99.4653 7.80487 99.176 8.16887C98.8867 8.52354 98.5367 8.79421 98.126 8.98087C98.378 9.05554 98.6207 9.16287 98.854 9.30287C99.0873 9.44287 99.288 9.62021 99.456 9.83487C99.6333 10.0495 99.7733 10.2969 99.876 10.5769C99.988 10.8569 100.044 11.1695 100.044 11.5149C100.044 11.9349 99.9693 12.3269 99.82 12.6909C99.68 13.0455 99.456 13.3535 99.148 13.6149C98.8493 13.8762 98.4713 14.0815 98.014 14.2309C97.5567 14.3802 97.0153 14.4549 96.39 14.4549C96.1473 14.4549 95.8953 14.4362 95.634 14.3989C95.382 14.3615 95.144 14.3149 94.92 14.2589C94.696 14.2029 94.5 14.1469 94.332 14.0909C94.164 14.0349 94.0427 13.9882 93.968 13.9509L94.22 12.8169C94.3787 12.8915 94.64 12.9895 95.004 13.1109C95.3773 13.2322 95.83 13.2929 96.362 13.2929ZM103.76 13.4889C103.76 13.7409 103.676 13.9602 103.508 14.1469C103.34 14.3335 103.112 14.4269 102.822 14.4269C102.533 14.4269 102.304 14.3335 102.136 14.1469C101.968 13.9602 101.884 13.7409 101.884 13.4889C101.884 13.2369 101.968 13.0175 102.136 12.8309C102.304 12.6442 102.533 12.5509 102.822 12.5509C103.112 12.5509 103.34 12.6442 103.508 12.8309C103.676 13.0175 103.76 13.2369 103.76 13.4889ZM107.332 8.28087C108.741 8.33687 109.772 8.64487 110.426 9.20487C111.088 9.76487 111.42 10.5255 111.42 11.4869C111.42 11.9162 111.345 12.3129 111.196 12.6769C111.056 13.0409 110.836 13.3535 110.538 13.6149C110.248 13.8762 109.88 14.0815 109.432 14.2309C108.984 14.3802 108.452 14.4549 107.836 14.4549C107.593 14.4549 107.346 14.4362 107.094 14.3989C106.842 14.3615 106.608 14.3149 106.394 14.2589C106.179 14.2029 105.988 14.1469 105.82 14.0909C105.652 14.0349 105.53 13.9882 105.456 13.9509L105.708 12.8169C105.866 12.8915 106.123 12.9895 106.478 13.1109C106.842 13.2322 107.285 13.2929 107.808 13.2929C108.228 13.2929 108.578 13.2462 108.858 13.1529C109.147 13.0595 109.38 12.9335 109.558 12.7749C109.735 12.6162 109.861 12.4342 109.936 12.2289C110.02 12.0142 110.062 11.7902 110.062 11.5569C110.062 11.2022 110.001 10.8895 109.88 10.6189C109.758 10.3389 109.544 10.1055 109.236 9.91887C108.928 9.73221 108.517 9.59221 108.004 9.49887C107.49 9.39621 106.842 9.34487 106.058 9.34487C106.114 8.88754 106.156 8.45821 106.184 8.05687C106.221 7.65554 106.254 7.26354 106.282 6.88087C106.31 6.49821 106.333 6.12021 106.352 5.74687C106.37 5.36421 106.389 4.96287 106.408 4.54287H111.084V5.64887H107.542C107.532 5.78887 107.518 5.98021 107.5 6.22287C107.481 6.45621 107.462 6.70354 107.444 6.96487C107.425 7.21687 107.406 7.46421 107.388 7.70687C107.369 7.94954 107.35 8.14087 107.332 8.28087ZM113.442 16.8349H112.112L116.858 3.28287H118.16L113.442 16.8349Z" fill="black"/>
<path d="M120.607 8.28087C122.016 8.33687 123.048 8.64487 123.701 9.20487C124.364 9.76487 124.695 10.5255 124.695 11.4869C124.695 11.9162 124.62 12.3129 124.471 12.6769C124.331 13.0409 124.112 13.3535 123.813 13.6149C123.524 13.8762 123.155 14.0815 122.707 14.2309C122.259 14.3802 121.727 14.4549 121.111 14.4549C120.868 14.4549 120.621 14.4362 120.369 14.3989C120.117 14.3615 119.884 14.3149 119.669 14.2589C119.454 14.2029 119.263 14.1469 119.095 14.0909C118.927 14.0349 118.806 13.9882 118.731 13.9509L118.983 12.8169C119.142 12.8915 119.398 12.9895 119.753 13.1109C120.117 13.2322 120.56 13.2929 121.083 13.2929C121.503 13.2929 121.853 13.2462 122.133 13.1529C122.422 13.0595 122.656 12.9335 122.833 12.7749C123.01 12.6162 123.136 12.4342 123.211 12.2289C123.295 12.0142 123.337 11.7902 123.337 11.5569C123.337 11.2022 123.276 10.8895 123.155 10.6189C123.034 10.3389 122.819 10.1055 122.511 9.91887C122.203 9.73221 121.792 9.59221 121.279 9.49887C120.766 9.39621 120.117 9.34487 119.333 9.34487C119.389 8.88754 119.431 8.45821 119.459 8.05687C119.496 7.65554 119.529 7.26354 119.557 6.88087C119.585 6.49821 119.608 6.12021 119.627 5.74687C119.646 5.36421 119.664 4.96287 119.683 4.54287H124.359V5.64887H120.817C120.808 5.78887 120.794 5.98021 120.775 6.22287C120.756 6.45621 120.738 6.70354 120.719 6.96487C120.7 7.21687 120.682 7.46421 120.663 7.70687C120.644 7.94954 120.626 8.14087 120.607 8.28087Z" fill="black" fill-opacity="0.6"/>
</svg>
