<svg width="160" height="19" viewBox="0 0 160 19" fill="none" xmlns="http://www.w3.org/2000/svg">
<path d="M9.24494 0L11.8641 5.63991L18.0374 6.38809L13.4829 10.6219L14.679 16.7243L9.24494 13.701L3.8109 16.7243L5.00697 10.6219L0.452479 6.38809L6.62573 5.63991L9.24494 0Z" fill="#FFC633"/>
<path d="M33.0469 0L35.6661 5.63991L41.8394 6.38809L37.2849 10.6219L38.481 16.7243L33.0469 13.701L27.6129 16.7243L28.809 10.6219L24.2545 6.38809L30.4277 5.63991L33.0469 0Z" fill="#FFC633"/>
<path d="M56.8487 0L59.4679 5.63991L65.6412 6.38809L61.0867 10.6219L62.2827 16.7243L56.8487 13.701L51.4147 16.7243L52.6107 10.6219L48.0562 6.38809L54.2295 5.63991L56.8487 0Z" fill="#FFC633"/>
<path d="M80.6507 0L83.2699 5.63991L89.4432 6.38809L84.8887 10.6219L86.0847 16.7243L80.6507 13.701L75.2167 16.7243L76.4127 10.6219L71.8582 6.38809L78.0315 5.63991L80.6507 0Z" fill="#FFC633"/>
<path d="M104.452 0L107.072 5.63991L113.245 6.38809L108.69 10.6219L109.886 16.7243L104.452 13.701L99.0184 16.7243L100.214 10.6219L95.66 6.38809L101.833 5.63991L104.452 0Z" fill="#FFC633"/>
<path d="M129.484 8.28087C130.893 8.33687 131.924 8.64487 132.578 9.20487C133.24 9.76487 133.572 10.5255 133.572 11.4869C133.572 11.9162 133.497 12.3129 133.348 12.6769C133.208 13.0409 132.988 13.3535 132.69 13.6149C132.4 13.8762 132.032 14.0815 131.584 14.2309C131.136 14.3802 130.604 14.4549 129.988 14.4549C129.745 14.4549 129.498 14.4362 129.246 14.3989C128.994 14.3615 128.76 14.3149 128.546 14.2589C128.331 14.2029 128.14 14.1469 127.972 14.0909C127.804 14.0349 127.682 13.9882 127.608 13.9509L127.86 12.8169C128.018 12.8915 128.275 12.9895 128.63 13.1109C128.994 13.2322 129.437 13.2929 129.96 13.2929C130.38 13.2929 130.73 13.2462 131.01 13.1529C131.299 13.0595 131.532 12.9335 131.71 12.7749C131.887 12.6162 132.013 12.4342 132.088 12.2289C132.172 12.0142 132.214 11.7902 132.214 11.5569C132.214 11.2022 132.153 10.8895 132.032 10.6189C131.91 10.3389 131.696 10.1055 131.388 9.91887C131.08 9.73221 130.669 9.59221 130.156 9.49887C129.642 9.39621 128.994 9.34487 128.21 9.34487C128.266 8.88754 128.308 8.45821 128.336 8.05687C128.373 7.65554 128.406 7.26354 128.434 6.88087C128.462 6.49821 128.485 6.12021 128.504 5.74687C128.522 5.36421 128.541 4.96287 128.56 4.54287H133.236V5.64887H129.694C129.684 5.78887 129.67 5.98021 129.652 6.22287C129.633 6.45621 129.614 6.70354 129.596 6.96487C129.577 7.21687 129.558 7.46421 129.54 7.70687C129.521 7.94954 129.502 8.14087 129.484 8.28087ZM137.26 13.4889C137.26 13.7409 137.176 13.9602 137.008 14.1469C136.84 14.3335 136.611 14.4269 136.322 14.4269C136.033 14.4269 135.804 14.3335 135.636 14.1469C135.468 13.9602 135.384 13.7409 135.384 13.4889C135.384 13.2369 135.468 13.0175 135.636 12.8309C135.804 12.6442 136.033 12.5509 136.322 12.5509C136.611 12.5509 136.84 12.6442 137.008 12.8309C137.176 13.0175 137.26 13.2369 137.26 13.4889ZM138.745 9.38687C138.745 7.76287 139.03 6.51221 139.599 5.63487C140.178 4.75754 140.976 4.31887 141.993 4.31887C143.01 4.31887 143.804 4.75754 144.373 5.63487C144.952 6.51221 145.241 7.76287 145.241 9.38687C145.241 11.0109 144.952 12.2615 144.373 13.1389C143.804 14.0162 143.01 14.4549 141.993 14.4549C140.976 14.4549 140.178 14.0162 139.599 13.1389C139.03 12.2615 138.745 11.0109 138.745 9.38687ZM143.869 9.38687C143.869 8.85487 143.836 8.35087 143.771 7.87487C143.715 7.39887 143.612 6.98354 143.463 6.62887C143.323 6.27421 143.132 5.99421 142.889 5.78887C142.646 5.57421 142.348 5.46687 141.993 5.46687C141.638 5.46687 141.34 5.57421 141.097 5.78887C140.854 5.99421 140.658 6.27421 140.509 6.62887C140.369 6.98354 140.266 7.39887 140.201 7.87487C140.145 8.35087 140.117 8.85487 140.117 9.38687C140.117 9.91887 140.145 10.4229 140.201 10.8989C140.266 11.3749 140.369 11.7902 140.509 12.1449C140.658 12.4995 140.854 12.7842 141.097 12.9989C141.34 13.2042 141.638 13.3069 141.993 13.3069C142.348 13.3069 142.646 13.2042 142.889 12.9989C143.132 12.7842 143.323 12.4995 143.463 12.1449C143.612 11.7902 143.715 11.3749 143.771 10.8989C143.836 10.4229 143.869 9.91887 143.869 9.38687ZM146.942 16.8349H145.612L150.358 3.28287H151.66L146.942 16.8349Z" fill="black"/>
<path d="M154.107 8.28087C155.516 8.33687 156.547 8.64487 157.201 9.20487C157.863 9.76487 158.195 10.5255 158.195 11.4869C158.195 11.9162 158.12 12.3129 157.971 12.6769C157.831 13.0409 157.611 13.3535 157.313 13.6149C157.023 13.8762 156.655 14.0815 156.207 14.2309C155.759 14.3802 155.227 14.4549 154.611 14.4549C154.368 14.4549 154.121 14.4362 153.869 14.3989C153.617 14.3615 153.383 14.3149 153.169 14.2589C152.954 14.2029 152.763 14.1469 152.595 14.0909C152.427 14.0349 152.305 13.9882 152.231 13.9509L152.483 12.8169C152.641 12.8915 152.898 12.9895 153.253 13.1109C153.617 13.2322 154.06 13.2929 154.583 13.2929C155.003 13.2929 155.353 13.2462 155.633 13.1529C155.922 13.0595 156.155 12.9335 156.333 12.7749C156.51 12.6162 156.636 12.4342 156.711 12.2289C156.795 12.0142 156.837 11.7902 156.837 11.5569C156.837 11.2022 156.776 10.8895 156.655 10.6189C156.533 10.3389 156.319 10.1055 156.011 9.91887C155.703 9.73221 155.292 9.59221 154.779 9.49887C154.265 9.39621 153.617 9.34487 152.833 9.34487C152.889 8.88754 152.931 8.45821 152.959 8.05687C152.996 7.65554 153.029 7.26354 153.057 6.88087C153.085 6.49821 153.108 6.12021 153.127 5.74687C153.145 5.36421 153.164 4.96287 153.183 4.54287H157.859V5.64887H154.317C154.307 5.78887 154.293 5.98021 154.275 6.22287C154.256 6.45621 154.237 6.70354 154.219 6.96487C154.2 7.21687 154.181 7.46421 154.163 7.70687C154.144 7.94954 154.125 8.14087 154.107 8.28087Z" fill="black" fill-opacity="0.6"/>
</svg>
