<svg width="136" height="19" viewBox="0 0 136 19" fill="none" xmlns="http://www.w3.org/2000/svg">
<path d="M9.24494 0L11.8641 5.63991L18.0374 6.38809L13.4829 10.6219L14.679 16.7243L9.24494 13.701L3.8109 16.7243L5.00697 10.6219L0.452479 6.38809L6.62573 5.63991L9.24494 0Z" fill="#FFC633"/>
<path d="M33.0469 0L35.6661 5.63991L41.8394 6.38809L37.2849 10.6219L38.481 16.7243L33.0469 13.701L27.6129 16.7243L28.809 10.6219L24.2545 6.38809L30.4277 5.63991L33.0469 0Z" fill="#FFC633"/>
<path d="M56.8487 0L59.4679 5.63991L65.6412 6.38809L61.0867 10.6219L62.2827 16.7243L56.8487 13.701L51.4147 16.7243L52.6107 10.6219L48.0562 6.38809L54.2295 5.63991L56.8487 0Z" fill="#FFC633"/>
<path d="M80.6507 0L83.2699 5.63991L89.4432 6.38809L84.8887 10.6219L86.0847 16.7243L80.6507 13.701L75.2167 16.7243L76.4127 10.6219L71.8582 6.38809L78.0315 5.63991L80.6507 0Z" fill="#FFC633"/>
<path d="M103.456 10.8849C103.633 10.4742 103.876 9.99821 104.184 9.45687C104.492 8.90621 104.837 8.34154 105.22 7.76287C105.612 7.18421 106.027 6.61487 106.466 6.05487C106.914 5.49487 107.362 4.99087 107.81 4.54287H109.056V10.7029H110.204V11.7669H109.056V14.2449H107.796V11.7669H103.456V10.8849ZM107.796 6.08287C107.516 6.38154 107.231 6.71754 106.942 7.09087C106.662 7.45487 106.386 7.83754 106.116 8.23887C105.845 8.64021 105.588 9.05087 105.346 9.47087C105.112 9.89087 104.902 10.3015 104.716 10.7029H107.796V6.08287ZM113.458 13.4889C113.458 13.7409 113.374 13.9602 113.206 14.1469C113.038 14.3335 112.809 14.4269 112.52 14.4269C112.231 14.4269 112.002 14.3335 111.834 14.1469C111.666 13.9602 111.582 13.7409 111.582 13.4889C111.582 13.2369 111.666 13.0175 111.834 12.8309C112.002 12.6442 112.231 12.5509 112.52 12.5509C112.809 12.5509 113.038 12.6442 113.206 12.8309C113.374 13.0175 113.458 13.2369 113.458 13.4889ZM114.943 9.38687C114.943 7.76287 115.228 6.51221 115.797 5.63487C116.376 4.75754 117.174 4.31887 118.191 4.31887C119.208 4.31887 120.002 4.75754 120.571 5.63487C121.15 6.51221 121.439 7.76287 121.439 9.38687C121.439 11.0109 121.15 12.2615 120.571 13.1389C120.002 14.0162 119.208 14.4549 118.191 14.4549C117.174 14.4549 116.376 14.0162 115.797 13.1389C115.228 12.2615 114.943 11.0109 114.943 9.38687ZM120.067 9.38687C120.067 8.85487 120.034 8.35087 119.969 7.87487C119.913 7.39887 119.81 6.98354 119.661 6.62887C119.521 6.27421 119.33 5.99421 119.087 5.78887C118.844 5.57421 118.546 5.46687 118.191 5.46687C117.836 5.46687 117.538 5.57421 117.295 5.78887C117.052 5.99421 116.856 6.27421 116.707 6.62887C116.567 6.98354 116.464 7.39887 116.399 7.87487C116.343 8.35087 116.315 8.85487 116.315 9.38687C116.315 9.91887 116.343 10.4229 116.399 10.8989C116.464 11.3749 116.567 11.7902 116.707 12.1449C116.856 12.4995 117.052 12.7842 117.295 12.9989C117.538 13.2042 117.836 13.3069 118.191 13.3069C118.546 13.3069 118.844 13.2042 119.087 12.9989C119.33 12.7842 119.521 12.4995 119.661 12.1449C119.81 11.7902 119.913 11.3749 119.969 10.8989C120.034 10.4229 120.067 9.91887 120.067 9.38687ZM123.14 16.8349H121.81L126.556 3.28287H127.858L123.14 16.8349Z" fill="black"/>
<path d="M130.305 8.28087C131.714 8.33687 132.745 8.64487 133.399 9.20487C134.061 9.76487 134.393 10.5255 134.393 11.4869C134.393 11.9162 134.318 12.3129 134.169 12.6769C134.029 13.0409 133.809 13.3535 133.511 13.6149C133.221 13.8762 132.853 14.0815 132.405 14.2309C131.957 14.3802 131.425 14.4549 130.809 14.4549C130.566 14.4549 130.319 14.4362 130.067 14.3989C129.815 14.3615 129.581 14.3149 129.367 14.2589C129.152 14.2029 128.961 14.1469 128.793 14.0909C128.625 14.0349 128.503 13.9882 128.429 13.9509L128.681 12.8169C128.839 12.8915 129.096 12.9895 129.451 13.1109C129.815 13.2322 130.258 13.2929 130.781 13.2929C131.201 13.2929 131.551 13.2462 131.831 13.1529C132.12 13.0595 132.353 12.9335 132.531 12.7749C132.708 12.6162 132.834 12.4342 132.909 12.2289C132.993 12.0142 133.035 11.7902 133.035 11.5569C133.035 11.2022 132.974 10.8895 132.853 10.6189C132.731 10.3389 132.517 10.1055 132.209 9.91887C131.901 9.73221 131.49 9.59221 130.977 9.49887C130.463 9.39621 129.815 9.34487 129.031 9.34487C129.087 8.88754 129.129 8.45821 129.157 8.05687C129.194 7.65554 129.227 7.26354 129.255 6.88087C129.283 6.49821 129.306 6.12021 129.325 5.74687C129.343 5.36421 129.362 4.96287 129.381 4.54287H134.057V5.64887H130.515C130.505 5.78887 130.491 5.98021 130.473 6.22287C130.454 6.45621 130.435 6.70354 130.417 6.96487C130.398 7.21687 130.379 7.46421 130.361 7.70687C130.342 7.94954 130.323 8.14087 130.305 8.28087Z" fill="black" fill-opacity="0.6"/>
</svg>
