<svg width="150" height="19" viewBox="0 0 150 19" fill="none" xmlns="http://www.w3.org/2000/svg">
<path d="M9.24494 0L11.8641 5.63991L18.0374 6.38809L13.4829 10.6219L14.679 16.7243L9.24494 13.701L3.8109 16.7243L5.00697 10.6219L0.452479 6.38809L6.62573 5.63991L9.24494 0Z" fill="#FFC633"/>
<path d="M33.0469 0L35.6661 5.63991L41.8394 6.38809L37.2849 10.6219L38.481 16.7243L33.0469 13.701L27.6129 16.7243L28.809 10.6219L24.2545 6.38809L30.4277 5.63991L33.0469 0Z" fill="#FFC633"/>
<path d="M56.8487 0L59.4679 5.63991L65.6412 6.38809L61.0867 10.6219L62.2827 16.7243L56.8487 13.701L51.4147 16.7243L52.6107 10.6219L48.0562 6.38809L54.2295 5.63991L56.8487 0Z" fill="#FFC633"/>
<path d="M80.6507 0L83.2699 5.63991L89.4432 6.38809L84.8887 10.6219L86.0847 16.7243L80.6507 13.701L75.2167 16.7243L76.4127 10.6219L71.8582 6.38809L78.0315 5.63991L80.6507 0Z" fill="#FFC633"/>
<path d="M98.5659 16.7243L104 13.701V0L101.381 5.63991L95.2075 6.38809L99.762 10.6219L98.5659 16.7243Z" fill="#FFC633"/>
<path d="M117.56 10.8849C117.737 10.4742 117.98 9.99821 118.288 9.45687C118.596 8.90621 118.941 8.34154 119.324 7.76287C119.716 7.18421 120.131 6.61487 120.57 6.05487C121.018 5.49487 121.466 4.99087 121.914 4.54287H123.16V10.7029H124.308V11.7669H123.16V14.2449H121.9V11.7669H117.56V10.8849ZM121.9 6.08287C121.62 6.38154 121.335 6.71754 121.046 7.09087C120.766 7.45487 120.491 7.83754 120.22 8.23887C119.949 8.64021 119.693 9.05087 119.45 9.47087C119.217 9.89087 119.007 10.3015 118.82 10.7029H121.9V6.08287ZM127.562 13.4889C127.562 13.7409 127.478 13.9602 127.31 14.1469C127.142 14.3335 126.914 14.4269 126.624 14.4269C126.335 14.4269 126.106 14.3335 125.938 14.1469C125.77 13.9602 125.686 13.7409 125.686 13.4889C125.686 13.2369 125.77 13.0175 125.938 12.8309C126.106 12.6442 126.335 12.5509 126.624 12.5509C126.914 12.5509 127.142 12.6442 127.31 12.8309C127.478 13.0175 127.562 13.2369 127.562 13.4889ZM131.134 8.28087C132.543 8.33687 133.574 8.64487 134.228 9.20487C134.89 9.76487 135.222 10.5255 135.222 11.4869C135.222 11.9162 135.147 12.3129 134.998 12.6769C134.858 13.0409 134.638 13.3535 134.34 13.6149C134.05 13.8762 133.682 14.0815 133.234 14.2309C132.786 14.3802 132.254 14.4549 131.638 14.4549C131.395 14.4549 131.148 14.4362 130.896 14.3989C130.644 14.3615 130.41 14.3149 130.196 14.2589C129.981 14.2029 129.79 14.1469 129.622 14.0909C129.454 14.0349 129.332 13.9882 129.258 13.9509L129.51 12.8169C129.668 12.8915 129.925 12.9895 130.28 13.1109C130.644 13.2322 131.087 13.2929 131.61 13.2929C132.03 13.2929 132.38 13.2462 132.66 13.1529C132.949 13.0595 133.182 12.9335 133.36 12.7749C133.537 12.6162 133.663 12.4342 133.738 12.2289C133.822 12.0142 133.864 11.7902 133.864 11.5569C133.864 11.2022 133.803 10.8895 133.682 10.6189C133.56 10.3389 133.346 10.1055 133.038 9.91887C132.73 9.73221 132.319 9.59221 131.806 9.49887C131.292 9.39621 130.644 9.34487 129.86 9.34487C129.916 8.88754 129.958 8.45821 129.986 8.05687C130.023 7.65554 130.056 7.26354 130.084 6.88087C130.112 6.49821 130.135 6.12021 130.154 5.74687C130.172 5.36421 130.191 4.96287 130.21 4.54287H134.886V5.64887H131.344C131.334 5.78887 131.32 5.98021 131.302 6.22287C131.283 6.45621 131.264 6.70354 131.246 6.96487C131.227 7.21687 131.208 7.46421 131.19 7.70687C131.171 7.94954 131.152 8.14087 131.134 8.28087ZM137.244 16.8349H135.914L140.66 3.28287H141.962L137.244 16.8349Z" fill="black"/>
<path d="M144.409 8.28087C145.818 8.33687 146.85 8.64487 147.503 9.20487C148.166 9.76487 148.497 10.5255 148.497 11.4869C148.497 11.9162 148.422 12.3129 148.273 12.6769C148.133 13.0409 147.914 13.3535 147.615 13.6149C147.326 13.8762 146.957 14.0815 146.509 14.2309C146.061 14.3802 145.529 14.4549 144.913 14.4549C144.67 14.4549 144.423 14.4362 144.171 14.3989C143.919 14.3615 143.686 14.3149 143.471 14.2589C143.256 14.2029 143.065 14.1469 142.897 14.0909C142.729 14.0349 142.608 13.9882 142.533 13.9509L142.785 12.8169C142.944 12.8915 143.2 12.9895 143.555 13.1109C143.919 13.2322 144.362 13.2929 144.885 13.2929C145.305 13.2929 145.655 13.2462 145.935 13.1529C146.224 13.0595 146.458 12.9335 146.635 12.7749C146.812 12.6162 146.938 12.4342 147.013 12.2289C147.097 12.0142 147.139 11.7902 147.139 11.5569C147.139 11.2022 147.078 10.8895 146.957 10.6189C146.836 10.3389 146.621 10.1055 146.313 9.91887C146.005 9.73221 145.594 9.59221 145.081 9.49887C144.568 9.39621 143.919 9.34487 143.135 9.34487C143.191 8.88754 143.233 8.45821 143.261 8.05687C143.298 7.65554 143.331 7.26354 143.359 6.88087C143.387 6.49821 143.41 6.12021 143.429 5.74687C143.448 5.36421 143.466 4.96287 143.485 4.54287H148.161V5.64887H144.619C144.61 5.78887 144.596 5.98021 144.577 6.22287C144.558 6.45621 144.54 6.70354 144.521 6.96487C144.502 7.21687 144.484 7.46421 144.465 7.70687C144.446 7.94954 144.428 8.14087 144.409 8.28087Z" fill="black" fill-opacity="0.6"/>
</svg>
