<svg width="37" height="37" viewBox="0 0 37 37" fill="none" xmlns="http://www.w3.org/2000/svg">
<circle cx="18.5" cy="18.5" r="18.5" fill="#063AF5"/>
<circle cx="18.5" cy="18.5" r="17.5" stroke="black" stroke-opacity="0.2" stroke-width="2"/>
<path d="M24.5306 15.0305L16.5306 23.0305C16.4609 23.1004 16.3781 23.1559 16.287 23.1938C16.1958 23.2316 16.0981 23.2511 15.9993 23.2511C15.9006 23.2511 15.8029 23.2316 15.7117 23.1938C15.6206 23.1559 15.5378 23.1004 15.4681 23.0305L11.9681 19.5305C11.8983 19.4607 11.843 19.3779 11.8052 19.2868C11.7675 19.1956 11.748 19.0979 11.748 18.9993C11.748 18.9006 11.7675 18.8029 11.8052 18.7117C11.843 18.6206 11.8983 18.5378 11.9681 18.468C12.0379 18.3982 12.1207 18.3429 12.2118 18.3051C12.303 18.2674 12.4007 18.248 12.4993 18.248C12.598 18.248 12.6957 18.2674 12.7869 18.3051C12.878 18.3429 12.9608 18.3982 13.0306 18.468L16 21.4374L23.4693 13.9693C23.6102 13.8284 23.8013 13.7492 24.0006 13.7492C24.1999 13.7492 24.391 13.8284 24.5318 13.9693C24.6727 14.1102 24.7519 14.3013 24.7519 14.5005C24.7519 14.6998 24.6727 14.8909 24.5318 15.0318L24.5306 15.0305Z" fill="white"/>
</svg>
